<svg xmlns="http://www.w3.org/2000/svg">
  <defs>
    <symbol id="accuracy" viewBox="0 -64 1024 1024">
        <g transform="matrix(1 0 0 -1 0 960)">
        <path
        d="M512 789l-296 -170v-342l296 -170l296 170v342zM478 619h68v-137h137v-68h-137v-137h-68v137h-137v68h137v137z" />
        </g>

    </symbol>
    
    <symbol id="frame" viewBox="0 -64 1024 1024">
      <g transform="matrix(1 0 0 -1 0 960)">
      <path
    d="M478 107h-103v307h51v-68l52 -35v-204zM444 789l-34 -68h-171v-68l136 -34v-103l69 -34l34 -102h68l34 102l69 34v103l136 34v68h-171l-34 68h-136zM512 721l68 -68l-68 -68l-68 68zM547 107h102v307h-52v-68l-50 -35v-204zM785 585l-68 -18v-221l68 34v205zM239 585
    l68 -18v-221l-68 34v205z" />
      </g>

    </symbol>

    <!-- viewBox="239 205 546 620" NO WHITESPACE-->
    <symbol id="pilot" viewBox="0 -64 1024 1024">
      <g transform="matrix(1 0 0 -1 0 960)">
      <path
    d="M359 499v-37q-12 -6 -24.5 -13.5t-27.5 -17.5q-25 -102 -46.5 -156.5t-21.5 -99.5q21 -9 43 -15.5t45 -12.5l20 76q50 -13 113 -20t98 -5l81 -63q37 6 74 16t72 24q0 44 -21.5 99t-46.5 157q-15 10 -27.5 17.5t-23.5 13.5v37h-40q-22 -24 -51.5 -37.5t-62.5 -13.5
    t-62.5 13.5t-51.5 37.5h-5h-34zM614 396l69 -68l-69 -68l-68 68zM631 636q0 -50 -34.5 -85t-84.5 -35v0q-49 0 -84 35t-35 85v0q0 49 35 84t84 35v0q50 0 84.5 -35t34.5 -84v0z" />
      </g>
    </symbol>

  </defs>
  
</svg>