<svg xmlns="http://www.w3.org/2000/svg">
  <defs>
  <symbol id="accuracy" viewBox="0 -64 1024 1024">
      <g transform="matrix(1 0 0 -1 0 960)">
      <path
      d="M512 789l-296 -170v-342l296 -170l296 170v342zM478 619h68v-137h137v-68h-137v-137h-68v137h-137v68h137v137z" />
      </g>

  </symbol>
  <symbol id="frame" viewBox="0 -64 1024 1024">
    <g transform="matrix(1 0 0 -1 0 960)">
    <path
  d="M478 107h-103v307h51v-68l52 -35v-204zM444 789l-34 -68h-171v-68l136 -34v-103l69 -34l34 -102h68l34 102l69 34v103l136 34v68h-171l-34 68h-136zM512 721l68 -68l-68 -68l-68 68zM547 107h102v307h-52v-68l-50 -35v-204zM785 585l-68 -18v-221l68 34v205zM239 585
  l68 -18v-221l-68 34v205z" />
    </g>

  </symbol>
  </defs>
  
</svg>